<svg xmlns="http://www.w3.org/2000/svg" width="32" height="32" viewBox="0 0 32 32" fill="none"
  stroke="white" stroke-width="2" stroke-linecap="round" stroke-linejoin="round"
  class="lucide lucide-coffee-icon lucide-coffee">
  <defs>
    <linearGradient id="gradient" x1="0%" y1="0%" x2="100%" y2="0%">
      <stop offset="0%" stop-color="#8B5CF6" />
      <stop offset="100%" stop-color="#EC4899" />
    </linearGradient>
  </defs>

  <!-- Background with rounded corners -->
  <rect width="32" height="32" rx="6" fill="url(#gradient)" stroke-width="0" stroke="white" />
  <g transform="translate(4, 4)">
    <path d="M10 2v2" />
    <path d="M14 2v2" />
    <path
      d="M16 8a1 1 0 0 1 1 1v8a4 4 0 0 1-4 4H7a4 4 0 0 1-4-4V9a1 1 0 0 1 1-1h14a4 4 0 1 1 0 8h-1" />
    <path d="M6 2v2" />
  </g>
</svg>